<?xml version="1.0" encoding="UTF-8"?><svg id="Layer_2" xmlns="http://www.w3.org/2000/svg" viewBox="170 380 685 265"><rect x="468.066" y="388" width="6.001" height="248" fill="#fff"/><rect x="179.913" y="388" width="256" height="248" fill="#0d345e"/><path d="M205.746,539.949v-1c6.111,0,6.471-4.164,6.471-10.328v-37.985c0-6.164-.36-10.329-6.471-10.329v-1h23.008v1c-6.111,0-6.471,4.165-6.471,10.329v37.985c0,6.164.359,10.328,6.471,10.328v1h-23.008Z" fill="#fff"/><path d="M299.935,479.308h15.099v1c-3.774.667-6.021,5.414-9.347,15.577l-14.649,45.065h-1.978l-14.47-41.067-15.908,41.067h-1.977l-17.076-50.979c-2.337-6.831-4.404-9.33-8.179-9.663v-1h23.008v1c-5.033.333-6.74,2.582-5.123,7.414l12.312,37.484,11.324-29.737-1.887-5.498c-2.427-6.831-4.404-9.33-8.179-9.663v-1h23.008v1c-5.033.333-6.92,2.582-5.213,7.414l12.672,36.402,9.257-28.905c3.235-10.079,3.056-14.244-2.696-14.91v-1Z" fill="#fff"/><path d="M367.164,492.469h-1.079c-4.943-8.913-7.549-10.829-16.177-10.829h-2.786v46.981c0,6.164.359,10.328,6.471,10.328v1h-23.008v-1c6.111,0,6.471-4.164,6.471-10.328v-46.981h-2.786c-8.538,0-11.234,1.916-16.178,10.829h-1.078l1.258-13.161h47.633l1.258,13.161Z" fill="#fff"/><path d="M407.518,529.287c2.606,6.83,4.404,9.329,8.179,9.662v1h-23.008v-1c5.033-.333,6.74-2.582,4.943-7.413l-4.314-11.412h-20.491l-1.438,3.749c-3.775,9.829-2.966,14.41,2.786,15.076v1h-15.099v-1c3.415-.666,5.393-5.58,9.257-15.576l17.436-45.064h1.977l19.772,50.979ZM373.904,517.292h18.334l-9.077-24.24-9.257,24.24Z" fill="#fff"/><path d="M505.076,452.901v-.781c4.16,0,4.404-3.254,4.404-8.071v-29.683c0-4.817-.244-8.072-4.404-8.072v-.781h15.66v.781c-4.16,0-4.404,3.255-4.404,8.072v29.683c0,4.817.244,8.071,4.404,8.071v.781h-15.66Z" fill="#fff"/><path d="M552.546,445.741c0,4.166.184,6.379,2.691,6.379v.781h-11.745v-.781c2.508,0,2.691-2.213,2.691-6.379v-15.623c0-4.557-.979-7.681-5.322-7.681-2.202,0-4.955,1.171-7.279,2.994v20.31c0,4.166.184,6.379,2.691,6.379v.781h-11.745v-.781c2.508,0,2.691-2.213,2.691-6.379v-18.096c0-4.166-1.04-5.338-3.119-6.119v-.781l8.992-2.604h.489v5.403c3.181-3.125,7.219-5.533,11.134-5.533,4.894,0,7.83,3.646,7.83,10.155v17.576Z" fill="#fff"/><path d="M579.095,448.214c-2.876,3.385-6.668,5.468-10.094,5.468-4.711,0-7.402-2.669-7.402-8.593v-23.434h-3.181v-1.562l.856-.39c3.548-1.627,5.689-4.492,7.952-9.895h.734v8.983h10.705l-.918,2.864h-9.787v22.653c0,3.645,1.591,5.533,4.588,5.533,2.202,0,4.16-1.367,5.628-2.669l.918,1.042Z" fill="#fff"/><path d="M606.192,445.155c-2.263,3.971-6.056,8.527-12.662,8.527-8.564,0-13.458-7.746-13.458-17.315,0-10.545,6.484-18.357,14.864-18.357,7.035,0,11.685,5.338,11.195,13.93h-19.392c-.062.456-.062.912-.062,1.367,0,9.569,3.12,16.143,9.91,16.143,3.915,0,6.668-2.539,8.503-5.012l1.101.716ZM586.862,429.988h13.091c.428-6.705-1.04-10.285-5.322-10.285-4.466,0-7.034,4.556-7.769,10.285Z" fill="#fff"/><path d="M629.744,418.531l-1.468,6.77h-.612c-1.468-1.302-3.242-1.823-4.466-1.823-1.468,0-2.813.716-4.343,2.799v19.463c0,4.166.184,6.379,2.691,6.379v.781h-11.745v-.781c2.508,0,2.691-2.213,2.691-6.379v-18.096c0-4.166-1.04-5.338-3.119-6.119v-.781l8.992-2.604h.489v5.989c2.569-3.71,5.383-6.119,8.441-6.119.734,0,1.591.13,2.447.521Z" fill="#fff"/><path d="M660.636,445.741c0,4.166.184,6.379,2.691,6.379v.781h-11.745v-.781c2.508,0,2.691-2.213,2.691-6.379v-15.623c0-4.557-.979-7.681-5.322-7.681-2.202,0-4.955,1.171-7.279,2.994v20.31c0,4.166.184,6.379,2.691,6.379v.781h-11.745v-.781c2.508,0,2.691-2.213,2.691-6.379v-18.096c0-4.166-1.04-5.338-3.119-6.119v-.781l8.992-2.604h.489v5.403c3.181-3.125,7.219-5.533,11.134-5.533,4.894,0,7.83,3.646,7.83,10.155v17.576Z" fill="#fff"/><path d="M693.852,449.516c-.979,1.562-3.181,4.166-6.484,4.166-3.242,0-4.099-2.669-4.281-5.012-2.447,3.059-6.179,5.012-9.666,5.012-4.159,0-7.096-2.734-7.096-7.161,0-4.751,3.364-8.527,10.705-10.74l5.689-1.692v-4.361c0-1.823,0-8.072-5.812-8.072-3.977,0-6.79,2.734-8.503,6.249l-1.224-.521c1.224-4.166,5.444-9.374,12.479-9.374,6.178,0,9.359,4.361,9.359,10.871v16.599c0,2.148,0,4.296,1.835,4.296.918,0,1.651-.586,2.141-1.106l.856.846ZM682.719,447.303v-11.521l-3.609,1.302c-2.569.911-6.606,2.278-6.606,7.486,0,3.646,1.957,5.403,4.466,5.403,2.141,0,4.281-1.302,5.75-2.669Z" fill="#fff"/><path d="M716.056,448.214c-2.875,3.385-6.667,5.468-10.093,5.468-4.711,0-7.402-2.669-7.402-8.593v-23.434h-3.181v-1.562l.856-.39c3.548-1.627,5.689-4.492,7.952-9.895h.734v8.983h10.705l-.918,2.864h-9.787v22.653c0,3.645,1.591,5.533,4.588,5.533,2.202,0,4.16-1.367,5.628-2.669l.917,1.042Z" fill="#fff"/><path d="M717.829,452.901v-.781c2.508,0,2.691-2.213,2.691-6.379v-18.096c0-4.166-1.04-5.338-3.119-6.119v-.781l8.992-2.604h.489v27.6c0,4.166.184,6.379,2.691,6.379v.781h-11.745ZM719.114,408.767c0-2.343,1.773-4.231,4.037-4.231,2.202,0,3.977,1.888,3.977,4.231,0,2.409-1.774,4.296-3.977,4.296-2.264,0-4.037-1.888-4.037-4.296Z" fill="#fff"/><path d="M733.551,435.977c0-10.806,6.361-17.966,15.171-17.966,8.931,0,15.048,6.77,15.048,17.706,0,10.805-6.361,17.966-15.171,17.966-8.931,0-15.048-6.77-15.048-17.706ZM756.918,435.846c0-9.243-2.691-16.143-8.319-16.143s-8.197,6.509-8.197,16.143c0,9.243,2.692,16.144,8.32,16.144s8.196-6.51,8.196-16.144Z" fill="#fff"/><path d="M795.885,445.741c0,4.166.183,6.379,2.691,6.379v.781h-11.745v-.781c2.508,0,2.691-2.213,2.691-6.379v-15.623c0-4.557-.979-7.681-5.322-7.681-2.202,0-4.955,1.171-7.279,2.994v20.31c0,4.166.184,6.379,2.691,6.379v.781h-11.745v-.781c2.508,0,2.691-2.213,2.691-6.379v-18.096c0-4.166-1.04-5.338-3.119-6.119v-.781l8.992-2.604h.489v5.403c3.181-3.125,7.219-5.533,11.134-5.533,4.894,0,7.83,3.646,7.83,10.155v17.576Z" fill="#fff"/><path d="M829.101,449.516c-.979,1.562-3.181,4.166-6.484,4.166-3.242,0-4.098-2.669-4.281-5.012-2.447,3.059-6.179,5.012-9.666,5.012-4.159,0-7.096-2.734-7.096-7.161,0-4.751,3.364-8.527,10.705-10.74l5.689-1.692v-4.361c0-1.823,0-8.072-5.812-8.072-3.977,0-6.79,2.734-8.503,6.249l-1.224-.521c1.224-4.166,5.444-9.374,12.479-9.374,6.178,0,9.359,4.361,9.359,10.871v16.599c0,2.148,0,4.296,1.835,4.296.918,0,1.651-.586,2.141-1.106l.856.846ZM817.968,447.303v-11.521l-3.609,1.302c-2.569.911-6.606,2.278-6.606,7.486,0,3.646,1.957,5.403,4.466,5.403,2.141,0,4.281-1.302,5.75-2.669Z" fill="#fff"/><path d="M831.303,452.901v-.781c2.508,0,2.691-2.213,2.691-6.379v-34.76c0-4.166-1.04-5.338-3.12-6.119v-.781l8.993-2.083h.489v43.743c0,4.166.184,6.379,2.691,6.379v.781h-11.745Z" fill="#fff"/><path d="M549.793,483.628h10.277v.781c-2.569.521-4.099,4.231-6.362,12.173l-9.971,35.216h-1.346l-9.849-32.092-10.828,32.092h-1.346l-11.623-39.838c-1.59-5.337-2.997-7.29-5.566-7.551v-.781h15.66v.781c-3.426.261-4.588,2.018-3.486,5.793l8.38,29.293,7.708-23.239-1.284-4.296c-1.652-5.337-2.998-7.29-5.567-7.551v-.781h15.66v.781c-3.425.261-4.71,2.018-3.548,5.793l8.626,28.446,6.301-22.588c2.202-7.876,2.079-11.131-1.836-11.652v-.781Z" fill="#fff"/><path d="M583.988,523.271c-2.263,3.971-6.056,8.527-12.662,8.527-8.564,0-13.458-7.746-13.458-17.315,0-10.545,6.484-18.357,14.864-18.357,7.035,0,11.685,5.338,11.195,13.931h-19.392c-.062.455-.062.911-.062,1.366,0,9.57,3.12,16.144,9.91,16.144,3.915,0,6.668-2.538,8.503-5.012l1.101.716ZM564.658,508.104h13.091c.428-6.705-1.04-10.285-5.322-10.285-4.466,0-7.034,4.556-7.769,10.285Z" fill="#fff"/><path d="M614.636,527.633c-.979,1.562-3.181,4.166-6.484,4.166-3.242,0-4.098-2.669-4.281-5.013-2.447,3.06-6.179,5.013-9.666,5.013-4.159,0-7.096-2.734-7.096-7.16,0-4.752,3.364-8.527,10.705-10.741l5.689-1.693v-4.361c0-1.822,0-8.071-5.812-8.071-3.977,0-6.79,2.734-8.503,6.249l-1.224-.521c1.224-4.166,5.444-9.374,12.479-9.374,6.178,0,9.359,4.361,9.359,10.871v16.599c0,2.148,0,4.296,1.835,4.296.918,0,1.651-.585,2.141-1.106l.856.847ZM603.503,525.42v-11.522l-3.609,1.303c-2.569.911-6.606,2.278-6.606,7.485,0,3.646,1.957,5.402,4.466,5.402,2.141,0,4.281-1.302,5.75-2.668Z" fill="#fff"/><path d="M616.837,531.018v-.781c2.508,0,2.691-2.213,2.691-6.379v-34.761c0-4.166-1.04-5.338-3.12-6.119v-.781l8.993-2.083h.489v43.744c0,4.166.184,6.379,2.691,6.379v.781h-11.745Z" fill="#fff"/><path d="M652.685,526.331c-2.876,3.385-6.668,5.468-10.094,5.468-4.711,0-7.402-2.669-7.402-8.593v-23.434h-3.181v-1.562l.856-.39c3.548-1.627,5.689-4.492,7.952-9.895h.734v8.983h10.705l-.918,2.864h-9.787v22.653c0,3.646,1.591,5.533,4.588,5.533,2.202,0,4.16-1.367,5.628-2.669l.918,1.042Z" fill="#fff"/><path d="M682.352,523.857c0,4.166.184,6.379,2.691,6.379v.781h-11.745v-.781c2.509,0,2.692-2.213,2.692-6.379v-15.624c0-4.556-.979-7.681-5.322-7.681-2.202,0-4.955,1.171-7.279,2.994v20.31c0,4.166.184,6.379,2.691,6.379v.781h-11.745v-.781c2.508,0,2.691-2.213,2.691-6.379v-34.761c0-4.166-1.04-5.338-3.12-6.119v-.781l8.993-2.083h.489v21.546c3.181-3.125,7.218-5.533,11.133-5.533,4.895,0,7.83,3.646,7.83,10.155v17.576Z" fill="#fff"/><path d="M734.838,493.914h-.734c-3.364-6.965-5.139-8.462-11.011-8.462h-1.896v36.714c0,4.816.244,8.071,4.404,8.071v.781h-15.66v-.781c4.159,0,4.404-3.255,4.404-8.071v-36.714h-1.896c-5.812,0-7.646,1.497-11.011,8.462h-.734l.856-10.285h32.422l.856,10.285Z" fill="#fff"/><path d="M759.734,527.633c-.979,1.562-3.181,4.166-6.484,4.166-3.242,0-4.099-2.669-4.281-5.013-2.447,3.06-6.179,5.013-9.666,5.013-4.159,0-7.096-2.734-7.096-7.16,0-4.752,3.364-8.527,10.705-10.741l5.689-1.693v-4.361c0-1.822,0-8.071-5.812-8.071-3.977,0-6.79,2.734-8.503,6.249l-1.224-.521c1.224-4.166,5.444-9.374,12.479-9.374,6.178,0,9.359,4.361,9.359,10.871v16.599c0,2.148,0,4.296,1.835,4.296.918,0,1.651-.585,2.141-1.106l.856.847ZM748.602,525.42v-11.522l-3.609,1.303c-2.569.911-6.606,2.278-6.606,7.485,0,3.646,1.957,5.402,4.466,5.402,2.141,0,4.281-1.302,5.75-2.668Z" fill="#fff"/><path d="M785.059,523.271c1.896,3.124,4.221,6.574,6.179,6.965v.781h-12.357v-.781c2.325-.26,2.325-1.758.734-4.296l-5.566-9.113-2.447,3.971c-2.569,4.166-3.793,6.64-3.793,7.941,0,.847.245,1.367,1.407,1.497v.781h-8.809v-.781c2.08-.391,4.771-2.669,9.543-10.22l3.059-4.882-6.362-10.481c-1.835-2.994-4.159-6.574-6.117-6.965v-.781h12.296v.781c-2.324.26-2.202,1.888-.734,4.296l4.955,8.136,1.896-2.994c2.569-4.166,3.915-6.64,3.915-7.941,0-.846-.367-1.367-1.407-1.497v-.781h8.687v.781c-2.08.391-4.771,2.669-9.543,10.22l-2.508,3.971,6.974,11.392Z" fill="#fff"/><path d="M536.091,600.802c1.773,5.338,2.997,7.29,5.566,7.551v.781h-15.66v-.781c3.426-.261,4.588-2.018,3.364-5.793l-2.936-8.918h-13.947l-.979,2.929c-2.569,7.682-2.019,11.262,1.896,11.782v.781h-10.277v-.781c2.325-.521,3.67-4.361,6.301-12.173l11.867-35.216h1.346l13.458,39.838ZM513.212,591.428h12.479l-6.179-18.941-6.301,18.941Z" fill="#fff"/><path d="M570.408,600.411c0,4.166,1.04,5.988,3.12,6.77v.781l-7.77,1.953h-.489l-.979-5.208c-2.386,2.995-5.75,5.208-9.727,5.208-7.157,0-12.173-7.096-12.173-17.055,0-11.782,6.974-18.617,15.171-18.617,2.508,0,4.648.651,6.484,1.628v-8.658c0-4.166-1.04-5.337-3.12-6.118v-.781l8.992-2.083h.489v42.181ZM564.047,602.755v-17.575c0-5.859-2.264-9.244-6.424-9.244-5.872,0-8.381,6.705-8.381,15.037,0,8.397,2.569,15.297,8.259,15.297,2.691,0,4.833-1.562,6.546-3.515Z" fill="#fff"/><path d="M595.55,575.024h8.687v.781c-1.835.391-3.181,2.734-5.566,9.764l-8.381,24.346h-1.224l-9.788-27.145c-1.712-4.752-2.691-6.574-4.771-6.965v-.781h12.601v.781c-2.752.261-2.813,2.018-1.712,5.208l6.483,18.616,4.955-14.581c2.202-6.509,1.407-8.853-1.284-9.243v-.781Z" fill="#fff"/><path d="M606.315,609.134v-.781c2.508,0,2.691-2.213,2.691-6.379v-18.097c0-4.166-1.04-5.337-3.119-6.118v-.781l8.992-2.604h.489v27.6c0,4.166.184,6.379,2.691,6.379v.781h-11.745ZM607.601,565c0-2.344,1.773-4.231,4.037-4.231,2.202,0,3.977,1.888,3.977,4.231,0,2.408-1.774,4.296-3.977,4.296-2.264,0-4.037-1.888-4.037-4.296Z" fill="#fff"/><path d="M622.404,607.962l-.49-8.592h.734c2.386,5.598,4.833,8.853,9.481,8.853,3.487,0,6.24-1.953,6.24-5.599,0-3.449-2.019-4.816-6.546-7.42l-2.386-1.367c-2.997-1.692-6.729-3.971-6.729-9.699,0-6.184,4.588-9.895,10.583-9.895,2.446,0,5.994.586,8.38,1.823v7.16h-.733c-1.713-4.817-4.282-7.291-8.137-7.291-3.241,0-5.321,2.019-5.321,5.078,0,3.971,3.242,5.598,4.955,6.574l2.324,1.302c4.16,2.344,8.381,4.427,8.381,10.48,0,6.444-4.771,10.545-11.745,10.545-3.12,0-6.729-.781-8.992-1.953Z" fill="#fff"/><path d="M647.178,592.209c0-10.806,6.361-17.966,15.171-17.966,8.931,0,15.048,6.771,15.048,17.706,0,10.806-6.361,17.966-15.171,17.966-8.931,0-15.048-6.77-15.048-17.706ZM670.545,592.079c0-9.243-2.691-16.144-8.319-16.144s-8.197,6.51-8.197,16.144c0,9.243,2.692,16.144,8.32,16.144s8.196-6.51,8.196-16.144Z" fill="#fff"/><path d="M701.438,574.764l-1.468,6.771h-.612c-1.468-1.302-3.242-1.823-4.466-1.823-1.468,0-2.813.717-4.343,2.8v19.463c0,4.166.184,6.379,2.691,6.379v.781h-11.745v-.781c2.508,0,2.691-2.213,2.691-6.379v-18.097c0-4.166-1.04-5.337-3.119-6.118v-.781l8.992-2.604h.489v5.988c2.569-3.71,5.383-6.119,8.441-6.119.734,0,1.591.131,2.447.521Z" fill="#fff"/><path d="M704.252,607.962l-.49-8.592h.734c2.386,5.598,4.833,8.853,9.481,8.853,3.487,0,6.24-1.953,6.24-5.599,0-3.449-2.019-4.816-6.546-7.42l-2.386-1.367c-2.997-1.692-6.729-3.971-6.729-9.699,0-6.184,4.588-9.895,10.583-9.895,2.446,0,5.994.586,8.38,1.823v7.16h-.733c-1.713-4.817-4.282-7.291-8.137-7.291-3.241,0-5.321,2.019-5.321,5.078,0,3.971,3.242,5.598,4.955,6.574l2.324,1.302c4.16,2.344,8.381,4.427,8.381,10.48,0,6.444-4.771,10.545-11.745,10.545-3.12,0-6.729-.781-8.992-1.953Z" fill="#fff"/></svg>